<svg width="32" height="33" viewBox="0 0 32 33" fill="none" xmlns="http://www.w3.org/2000/svg">
<path fill-rule="evenodd" clip-rule="evenodd" d="M0 16.3281C0 7.49159 7.16347 0.328125 16 0.328125C24.8365 0.328125 32 7.49159 32 16.3281C32 25.1647 24.8365 32.3281 16 32.3281C7.16347 32.3281 0 25.1647 0 16.3281ZM11.307 13.58H7.68107V24.4745H11.307V13.58ZM11.5459 10.2099C11.5223 9.14172 10.7585 8.32812 9.518 8.32812C8.2776 8.32812 7.46667 9.14172 7.46667 10.2099C7.46667 11.256 8.25367 12.093 9.47093 12.093H9.49413C10.7585 12.093 11.5459 11.256 11.5459 10.2099ZM24.3836 18.2279C24.3836 14.8817 22.5948 13.3242 20.2087 13.3242C18.2836 13.3242 17.4217 14.3816 16.9405 15.1234V13.5803H13.3141C13.3619 14.6026 13.3141 24.4748 13.3141 24.4748H16.9405V18.3904C16.9405 18.0648 16.964 17.74 17.0599 17.5069C17.3219 16.8564 17.9186 16.1829 18.9203 16.1829C20.2329 16.1829 20.7577 17.1819 20.7577 18.6459V24.4745H24.3835L24.3836 18.2279Z" fill="#99B6C5"/>
</svg>
