<svg width="32" height="33" viewBox="0 0 32 33" fill="none" xmlns="http://www.w3.org/2000/svg">
<path fill-rule="evenodd" clip-rule="evenodd" d="M0 16.3281C0 7.49159 7.16347 0.328125 16 0.328125C24.8365 0.328125 32 7.49159 32 16.3281C32 25.1647 24.8365 32.3281 16 32.3281C7.16347 32.3281 0 25.1647 0 16.3281ZM15.5208 13.3331L15.5544 13.8868L14.9948 13.819C12.9579 13.5591 11.1785 12.6778 9.66753 11.1977L8.92893 10.4633L8.73867 11.0056C8.33573 12.2145 8.59313 13.4913 9.43253 14.35C9.8802 14.8245 9.77947 14.8923 9.00727 14.6099C8.73867 14.5195 8.5036 14.4517 8.48127 14.4856C8.40293 14.5647 8.67147 15.5929 8.88413 15.9996C9.17513 16.5645 9.76827 17.1182 10.4174 17.4459L10.9658 17.7057L10.3167 17.717C9.68993 17.717 9.66753 17.7283 9.73473 17.9656C9.95853 18.7 10.8427 19.4796 11.8275 19.8186L12.5215 20.0559L11.9171 20.4174C11.0217 20.9371 9.96973 21.2309 8.91773 21.2535C8.41407 21.2648 8 21.31 8 21.3439C8 21.4569 9.3654 22.0896 10.16 22.3382C12.5438 23.0726 15.3753 22.7563 17.5017 21.5021C19.0126 20.6095 20.5235 18.8356 21.2285 17.1182C21.6091 16.203 21.9896 14.5308 21.9896 13.7286C21.9896 13.2089 22.0231 13.1411 22.6499 12.5196C23.0192 12.1581 23.3661 11.7626 23.4333 11.6496C23.5452 11.4349 23.5341 11.4349 22.9633 11.627C22.012 11.966 21.8777 11.9208 22.3477 11.4123C22.6947 11.0508 23.1087 10.3955 23.1087 10.2034C23.1087 10.1695 22.9409 10.226 22.7506 10.3277C22.5492 10.4407 22.1015 10.6101 21.7657 10.7119L21.1614 10.9039L20.613 10.5311C20.3109 10.3277 19.8855 10.1017 19.6617 10.0339C19.0909 9.87572 18.218 9.89832 17.7032 10.0791C16.3042 10.5875 15.4201 11.8982 15.5208 13.3331Z" fill="#99B6C5"/>
</svg>
