<?xml version="1.0" standalone="no"?>
<!DOCTYPE svg PUBLIC "-//W3C//DTD SVG 20010904//EN"
 "http://www.w3.org/TR/2001/REC-SVG-20010904/DTD/svg10.dtd">
<svg version="1.0" xmlns="http://www.w3.org/2000/svg"
 width="159.000000pt" height="71.000000pt" viewBox="0 0 159.000000 71.000000"
 preserveAspectRatio="xMidYMid meet">

<g transform="translate(0.000000,71.000000) scale(0.100000,-0.100000)"
fill="#000000" stroke="none">
<path d="M0 355 l0 -355 795 0 795 0 0 355 0 355 -795 0 -795 0 0 -355z m1102
40 l3 -115 -30 0 -30 0 0 110 c0 116 -3 109 47 119 4 0 8 -51 10 -114z m-277
85 c0 -8 -10 -16 -22 -18 -18 -3 -23 2 -23 18 0 16 5 21 23 18 12 -2 22 -10
22 -18z m-577 -63 c14 -37 28 -64 32 -60 4 4 17 36 30 71 22 60 23 62 58 62
28 0 33 -3 24 -12 -16 -16 -16 -170 0 -186 9 -9 3 -12 -27 -12 l-40 0 3 72 c2
40 1 71 -2 68 -3 -3 -15 -34 -28 -70 -13 -35 -28 -65 -34 -67 -7 -2 -25 30
-43 74 l-31 78 3 -78 c2 -63 -1 -77 -13 -77 -12 0 -15 18 -15 105 l0 106 29
-3 c26 -3 32 -10 54 -71z m374 26 l-4 -48 41 39 c22 22 38 43 35 48 -3 4 6 8
20 8 25 0 25 -1 -14 -36 -22 -20 -40 -40 -40 -44 0 -4 20 -35 45 -69 l45 -61
-41 0 c-23 0 -38 4 -34 10 3 5 -8 29 -26 52 l-31 43 4 -53 c3 -52 3 -52 -27
-52 l-30 0 0 105 0 105 30 0 c30 0 30 -1 27 -47z m-88 -25 c17 -23 13 -38 -9
-38 -8 0 -17 11 -21 25 -3 14 -9 25 -13 25 -27 -1 -48 -52 -37 -95 8 -30 44
-42 78 -25 l23 12 -22 -23 c-45 -46 -113 -20 -128 48 -14 68 91 125 129 71z
m296 -61 l5 -77 -39 0 c-31 0 -37 3 -28 12 16 16 16 115 0 121 -15 5 31 27 47
23 6 -1 12 -37 15 -79z m80 74 c0 -5 14 -4 30 2 50 19 64 2 70 -82 l5 -71 -30
0 -30 0 3 61 c4 65 -4 84 -31 73 -13 -5 -17 -19 -17 -64 0 -37 5 -60 13 -63 6
-3 -8 -6 -32 -6 -35 -1 -42 2 -33 11 16 16 16 115 0 121 -8 3 -3 9 12 15 32
14 40 14 40 3z m342 -8 c10 -9 18 -27 18 -40 0 -21 -4 -23 -45 -23 -37 0 -45
-3 -45 -18 0 -38 51 -57 79 -29 11 10 13 9 9 -3 -7 -22 -49 -41 -78 -35 -62
14 -83 105 -34 144 32 25 71 27 96 4z m105 3 c-6 -16 13 -86 23 -86 11 0 33
77 26 89 -5 7 2 11 19 11 24 0 25 -1 11 -22 -8 -13 -28 -60 -45 -104 -17 -45
-40 -89 -51 -99 -23 -21 -53 -13 -48 12 4 18 10 19 40 8 31 -12 30 29 -3 106
-17 41 -36 80 -41 87 -8 9 -1 12 32 12 32 0 41 -3 37 -14z"/>
<path d="M1193 423 c-7 -2 -13 -16 -13 -29 0 -19 5 -24 26 -24 22 0 25 4 22
27 -3 27 -14 35 -35 26z"/>
</g>
</svg>
