<svg width="32" height="33" fill="none" xmlns="http://www.w3.org/2000/svg"><path fill-rule="evenodd" clip-rule="evenodd" d="M0 16.328c0-8.836 7.163-16 16-16s16 7.164 16 16c0 8.837-7.163 16-16 16s-16-7.163-16-16zm11.307-2.748H7.681v10.894h3.626V13.58zm.239-3.37c-.024-1.068-.787-1.882-2.028-1.882-1.24 0-2.051.814-2.051 1.882 0 1.046.787 1.883 2.004 1.883h.023c1.264 0 2.052-.837 2.052-1.883zm12.838 8.018c0-3.346-1.79-4.904-4.175-4.904-1.925 0-2.787 1.058-3.268 1.8V13.58h-3.627c.048 1.023 0 10.895 0 10.895h3.627V18.39c0-.325.023-.65.119-.883.262-.65.859-1.324 1.86-1.324 1.313 0 1.838.999 1.838 2.463v5.828h3.626v-6.246z" fill="#99B6C5"/></svg>